<svg xmlns="http://www.w3.org/2000/svg" version="1.1" xmlns:xlink="http://www.w3.org/1999/xlink" xmlns:svgjs="http://svgjs.dev/svgjs" width="2000" height="383" viewBox="0 0 2000 383"><g transform="matrix(1,0,0,1,-1.2121212121212466,-0.2603548660622437)"><svg viewBox="0 0 396 76" data-background-color="#ffffff" preserveAspectRatio="xMidYMid meet" height="383" width="2000" xmlns="http://www.w3.org/2000/svg" xmlns:xlink="http://www.w3.org/1999/xlink"><g id="tight-bounds" transform="matrix(1,0,0,1,0.2400000000000091,0.05166310658154316)"><svg viewBox="0 0 395.52 75.8966737868369" height="75.8966737868369" width="395.52"><g><svg viewBox="0 0 395.52 75.8966737868369" height="75.8966737868369" width="395.52"><g><svg viewBox="0 0 590.0894567040822 113.23277457656134" height="75.8966737868369" width="395.52"><g><rect width="4.38852063744" height="82.34366023838214" x="407.00827392" y="15.444557169089599" fill="#ff0000" opacity="1" stroke-width="0" stroke="transparent" fill-opacity="1" class="rect-r$-0" data-fill-palette-color="primary" rx="1%" id="r$-0" data-palette-color="#ff0000"></rect></g><g transform="matrix(1,0,0,1,0,15.64939214480696)"><svg viewBox="0 0 395.52000000000004 81.93399028694742" height="81.93399028694742" width="395.52000000000004"><g id="textblocktransform"><svg viewBox="0 0 395.52000000000004 81.93399028694742" height="81.93399028694742" width="395.52000000000004" id="textblock"><g><svg viewBox="0 0 395.52000000000004 48.6634554973822" height="48.6634554973822" width="395.52000000000004"><g transform="matrix(1,0,0,1,0,0)"><svg width="395.52000000000004" viewBox="4.65 -37 307.58000000000004 37.6" height="48.6634554973822" data-palette-color="#ff0000"><g class="wordmark-text-0" data-fill-palette-color="primary" id="text-0"><path d="M31.85 0L31.85-29.4 31.6-29.4 28.65-23.55 20.3-8.35 11.95-23.55 9-29.4 8.75-29.4 8.75 0 4.65 0 4.65-34.9 10.25-34.9 20.25-16.1 20.5-16.1 30.55-34.9 35.95-34.9 35.95 0 31.85 0ZM71.5 0L67.1 0 63.6-10.3 49.5-10.3 46 0 41.75 0 53.95-34.9 59.3-34.9 71.5 0ZM62.55-14L56.65-31 56.4-31 50.5-14 62.55-14ZM87.1 0.6L87.1 0.6Q82.85 0.6 79.85-1.03 76.85-2.65 74.75-5.5L74.75-5.5 77.85-8.1Q79.7-5.65 81.95-4.38 84.2-3.1 87.25-3.1L87.25-3.1Q91-3.1 92.97-4.9 94.95-6.7 94.95-9.7L94.95-9.7Q94.95-12.2 93.45-13.55 91.95-14.9 88.5-15.7L88.5-15.7 85.65-16.35Q80.85-17.45 78.32-19.68 75.8-21.9 75.8-25.95L75.8-25.95Q75.8-28.25 76.65-30.05 77.5-31.85 79.02-33.05 80.55-34.25 82.67-34.88 84.8-35.5 87.35-35.5L87.35-35.5Q91.3-35.5 94.12-34.05 96.95-32.6 98.9-29.8L98.9-29.8 95.75-27.5Q94.3-29.5 92.25-30.65 90.2-31.8 87.15-31.8L87.15-31.8Q83.8-31.8 81.87-30.38 79.95-28.95 79.95-26.1L79.95-26.1Q79.95-23.6 81.57-22.33 83.2-21.05 86.5-20.3L86.5-20.3 89.35-19.65Q94.5-18.5 96.8-16.15 99.1-13.8 99.1-9.9L99.1-9.9Q99.1-7.5 98.27-5.55 97.45-3.6 95.9-2.25 94.35-0.9 92.12-0.15 89.9 0.6 87.1 0.6ZM133.54 0L133.54-29.4 133.29-29.4 130.34-23.55 121.99-8.35 113.64-23.55 110.69-29.4 110.44-29.4 110.44 0 106.34 0 106.34-34.9 111.94-34.9 121.94-16.1 122.19-16.1 132.24-34.9 137.64-34.9 137.64 0 133.54 0ZM159.99 0.6L159.99 0.6Q156.59 0.6 153.87-0.58 151.14-1.75 149.22-4.03 147.29-6.3 146.24-9.68 145.19-13.05 145.19-17.45L145.19-17.45Q145.19-21.85 146.24-25.2 147.29-28.55 149.22-30.85 151.14-33.15 153.87-34.33 156.59-35.5 159.99-35.5L159.99-35.5Q163.34-35.5 166.09-34.33 168.84-33.15 170.77-30.85 172.69-28.55 173.74-25.2 174.79-21.85 174.79-17.45L174.79-17.45Q174.79-13.05 173.74-9.68 172.69-6.3 170.77-4.03 168.84-1.75 166.09-0.58 163.34 0.6 159.99 0.6ZM159.99-3.15L159.99-3.15Q162.24-3.15 164.14-3.95 166.04-4.75 167.42-6.25 168.79-7.75 169.54-9.85 170.29-11.95 170.29-14.55L170.29-14.55 170.29-20.35Q170.29-22.95 169.54-25.05 168.79-27.15 167.42-28.65 166.04-30.15 164.14-30.95 162.24-31.75 159.99-31.75L159.99-31.75Q157.74-31.75 155.84-30.95 153.94-30.15 152.57-28.65 151.19-27.15 150.44-25.05 149.69-22.95 149.69-20.35L149.69-20.35 149.69-14.55Q149.69-11.95 150.44-9.85 151.19-7.75 152.57-6.25 153.94-4.75 155.84-3.95 157.74-3.15 159.99-3.15ZM205.19-31.2L194.09-31.2 194.09 0 189.89 0 189.89-31.2 178.79-31.2 178.79-34.9 205.19-34.9 205.19-31.2ZM223.99 0.6L223.99 0.6Q220.59 0.6 217.86-0.58 215.14-1.75 213.21-4.03 211.29-6.3 210.24-9.68 209.19-13.05 209.19-17.45L209.19-17.45Q209.19-21.85 210.24-25.2 211.29-28.55 213.21-30.85 215.14-33.15 217.86-34.33 220.59-35.5 223.99-35.5L223.99-35.5Q227.34-35.5 230.09-34.33 232.84-33.15 234.76-30.85 236.69-28.55 237.74-25.2 238.79-21.85 238.79-17.45L238.79-17.45Q238.79-13.05 237.74-9.68 236.69-6.3 234.76-4.03 232.84-1.75 230.09-0.58 227.34 0.6 223.99 0.6ZM223.99-3.15L223.99-3.15Q226.24-3.15 228.14-3.95 230.04-4.75 231.41-6.25 232.79-7.75 233.54-9.85 234.29-11.95 234.29-14.55L234.29-14.55 234.29-20.35Q234.29-22.95 233.54-25.05 232.79-27.15 231.41-28.65 230.04-30.15 228.14-30.95 226.24-31.75 223.99-31.75L223.99-31.75Q221.74-31.75 219.84-30.95 217.94-30.15 216.56-28.65 215.19-27.15 214.44-25.05 213.69-22.95 213.69-20.35L213.69-20.35 213.69-14.55Q213.69-11.95 214.44-9.85 215.19-7.75 216.56-6.25 217.94-4.75 219.84-3.95 221.74-3.15 223.99-3.15ZM250.53-15L250.53 0 246.33 0 246.33-34.9 260.23-34.9Q264.83-34.9 267.41-32.35 269.98-29.8 269.98-25L269.98-25Q269.98-21.15 268.21-18.68 266.43-16.2 262.98-15.4L262.98-15.4 270.98 0 266.23 0 258.68-15 250.53-15ZM250.53-18.6L260.23-18.6Q262.73-18.6 264.11-19.9 265.48-21.2 265.48-23.6L265.48-23.6 265.48-26.2Q265.48-28.6 264.11-29.9 262.73-31.2 260.23-31.2L260.23-31.2 250.53-31.2 250.53-18.6ZM281.53-23L277.93-23 277.93-37 281.53-37 281.53-23ZM300.23 0.6L300.23 0.6Q295.98 0.6 292.98-1.03 289.98-2.65 287.88-5.5L287.88-5.5 290.98-8.1Q292.83-5.65 295.08-4.38 297.33-3.1 300.38-3.1L300.38-3.1Q304.13-3.1 306.1-4.9 308.08-6.7 308.08-9.7L308.08-9.7Q308.08-12.2 306.58-13.55 305.08-14.9 301.63-15.7L301.63-15.7 298.78-16.35Q293.98-17.45 291.45-19.68 288.93-21.9 288.93-25.95L288.93-25.95Q288.93-28.25 289.78-30.05 290.63-31.85 292.15-33.05 293.68-34.25 295.8-34.88 297.93-35.5 300.48-35.5L300.48-35.5Q304.43-35.5 307.25-34.05 310.08-32.6 312.03-29.8L312.03-29.8 308.88-27.5Q307.43-29.5 305.38-30.65 303.33-31.8 300.28-31.8L300.28-31.8Q296.93-31.8 295-30.38 293.08-28.95 293.08-26.1L293.08-26.1Q293.08-23.6 294.7-22.33 296.33-21.05 299.63-20.3L299.63-20.3 302.48-19.65Q307.63-18.5 309.93-16.15 312.23-13.8 312.23-9.9L312.23-9.9Q312.23-7.5 311.4-5.55 310.58-3.6 309.03-2.25 307.48-0.9 305.25-0.15 303.03 0.6 300.23 0.6Z" fill="#ff0000" data-fill-palette-color="primary"></path></g></svg></g></svg></g><g transform="matrix(1,0,0,1,19.77600000000001,60.1517294173822)"><svg viewBox="0 0 375.744 21.782260869565217" height="21.782260869565217" width="375.744"><g transform="matrix(1,0,0,1,0,0)"><svg width="375.744" viewBox="2.9 -37 810.6700000000001 47" height="21.782260869565217" data-palette-color="#000000"><path d="M16.95 0.6L16.95 0.6Q10.3 0.6 6.6-3.93 2.9-8.45 2.9-17.25L2.9-17.25Q2.9-26.05 6.6-30.78 10.3-35.5 16.95-35.5L16.95-35.5Q21.35-35.5 24.33-33.5 27.3-31.5 28.95-27.85L28.95-27.85 25.55-25.8Q24.5-28.5 22.35-30.13 20.2-31.75 16.95-31.75L16.95-31.75Q14.7-31.75 12.93-30.9 11.15-30.05 9.93-28.48 8.7-26.9 8.05-24.73 7.4-22.55 7.4-19.85L7.4-19.85 7.4-14.65Q7.4-9.25 9.9-6.2 12.4-3.15 16.95-3.15L16.95-3.15Q20.3-3.15 22.55-4.88 24.8-6.6 25.85-9.45L25.85-9.45 29.2-7.35Q27.55-3.65 24.45-1.53 21.35 0.6 16.95 0.6ZM56.3 0L54.05 0Q51.8 0 50.82-1.2 49.85-2.4 49.6-4.2L49.6-4.2 49.35-4.2Q48.5-1.8 46.55-0.6 44.6 0.6 41.9 0.6L41.9 0.6Q37.8 0.6 35.52-1.5 33.25-3.6 33.25-7.2L33.25-7.2Q33.25-10.85 35.92-12.8 38.6-14.75 44.25-14.75L44.25-14.75 49.35-14.75 49.35-17.3Q49.35-20.05 47.85-21.5 46.35-22.95 43.25-22.95L43.25-22.95Q40.9-22.95 39.32-21.9 37.75-20.85 36.7-19.1L36.7-19.1 34.3-21.35Q35.35-23.45 37.65-24.93 39.95-26.4 43.45-26.4L43.45-26.4Q48.15-26.4 50.75-24.1 53.35-21.8 53.35-17.7L53.35-17.7 53.35-3.5 56.3-3.5 56.3 0ZM42.55-2.8L42.55-2.8Q44.05-2.8 45.3-3.15 46.55-3.5 47.45-4.15 48.35-4.8 48.85-5.65 49.35-6.5 49.35-7.5L49.35-7.5 49.35-11.75 44.05-11.75Q40.6-11.75 39.02-10.75 37.45-9.75 37.45-7.85L37.45-7.85 37.45-6.8Q37.45-4.9 38.82-3.85 40.2-2.8 42.55-2.8ZM69.8 0L66.25 0Q64.15 0 63.07-1.18 62-2.35 62-4.15L62-4.15 62-37 66-37 66-3.5 69.8-3.5 69.8 0ZM77.59-31.85L77.59-31.85Q76.29-31.85 75.72-32.48 75.14-33.1 75.14-34.1L75.14-34.1 75.14-34.75Q75.14-35.75 75.72-36.38 76.29-37 77.59-37L77.59-37Q78.89-37 79.47-36.38 80.04-35.75 80.04-34.75L80.04-34.75 80.04-34.1Q80.04-33.1 79.47-32.48 78.89-31.85 77.59-31.85ZM75.59 0L75.59-25.8 79.59-25.8 79.59 0 75.59 0ZM104.59 0L104.59-4.2 104.39-4.2Q102.04 0.6 96.84 0.6L96.84 0.6Q94.44 0.6 92.49-0.35 90.54-1.3 89.17-3.05 87.79-4.8 87.06-7.3 86.34-9.8 86.34-12.9L86.34-12.9Q86.34-16 87.06-18.5 87.79-21 89.17-22.75 90.54-24.5 92.49-25.45 94.44-26.4 96.84-26.4L96.84-26.4Q99.54-26.4 101.47-25.23 103.39-24.05 104.39-21.6L104.39-21.6 104.59-21.6 104.59-37 108.59-37 108.59 0 104.59 0ZM97.94-3L97.94-3Q99.29-3 100.52-3.35 101.74-3.7 102.64-4.38 103.54-5.05 104.06-6.03 104.59-7 104.59-8.25L104.59-8.25 104.59-17.85Q104.59-18.9 104.06-19.83 103.54-20.75 102.64-21.4 101.74-22.05 100.52-22.43 99.29-22.8 97.94-22.8L97.94-22.8Q94.54-22.8 92.59-20.68 90.64-18.55 90.64-15.1L90.64-15.1 90.64-10.7Q90.64-7.25 92.59-5.13 94.54-3 97.94-3ZM138.09 0L135.84 0Q133.59 0 132.61-1.2 131.64-2.4 131.39-4.2L131.39-4.2 131.14-4.2Q130.29-1.8 128.34-0.6 126.39 0.6 123.69 0.6L123.69 0.6Q119.59 0.6 117.31-1.5 115.04-3.6 115.04-7.2L115.04-7.2Q115.04-10.85 117.71-12.8 120.39-14.75 126.04-14.75L126.04-14.75 131.14-14.75 131.14-17.3Q131.14-20.05 129.64-21.5 128.14-22.95 125.04-22.95L125.04-22.95Q122.69-22.95 121.11-21.9 119.54-20.85 118.49-19.1L118.49-19.1 116.09-21.35Q117.14-23.45 119.44-24.93 121.74-26.4 125.24-26.4L125.24-26.4Q129.94-26.4 132.54-24.1 135.14-21.8 135.14-17.7L135.14-17.7 135.14-3.5 138.09-3.5 138.09 0ZM124.34-2.8L124.34-2.8Q125.84-2.8 127.09-3.15 128.34-3.5 129.24-4.15 130.14-4.8 130.64-5.65 131.14-6.5 131.14-7.5L131.14-7.5 131.14-11.75 125.84-11.75Q122.39-11.75 120.81-10.75 119.24-9.75 119.24-7.85L119.24-7.85 119.24-6.8Q119.24-4.9 120.61-3.85 121.99-2.8 124.34-2.8ZM160.29 0L160.29-4.2 160.09-4.2Q157.74 0.6 152.54 0.6L152.54 0.6Q150.14 0.6 148.19-0.35 146.24-1.3 144.86-3.05 143.49-4.8 142.76-7.3 142.04-9.8 142.04-12.9L142.04-12.9Q142.04-16 142.76-18.5 143.49-21 144.86-22.75 146.24-24.5 148.19-25.45 150.14-26.4 152.54-26.4L152.54-26.4Q155.24-26.4 157.16-25.23 159.09-24.05 160.09-21.6L160.09-21.6 160.29-21.6 160.29-37 164.29-37 164.29 0 160.29 0ZM153.64-3L153.64-3Q154.99-3 156.21-3.35 157.44-3.7 158.34-4.38 159.24-5.05 159.76-6.03 160.29-7 160.29-8.25L160.29-8.25 160.29-17.85Q160.29-18.9 159.76-19.83 159.24-20.75 158.34-21.4 157.44-22.05 156.21-22.43 154.99-22.8 153.64-22.8L153.64-22.8Q150.24-22.8 148.29-20.68 146.34-18.55 146.34-15.1L146.34-15.1 146.34-10.7Q146.34-7.25 148.29-5.13 150.24-3 153.64-3ZM175.33-5.85L175.33-5.85Q176.93-5.85 177.66-5.03 178.38-4.2 178.38-2.9L178.38-2.9 178.38-2.2Q178.38-0.15 177.18 2.33 175.98 4.8 173.83 6.65L173.83 6.65 170.48 6.65Q171.98 5.05 172.91 3.63 173.83 2.2 174.23 0.45L174.23 0.45Q173.23 0.2 172.76-0.5 172.28-1.2 172.28-2.2L172.28-2.2 172.28-2.9Q172.28-4.2 173.01-5.03 173.73-5.85 175.33-5.85ZM220.43 0L220.43-15.8 202.78-15.8 202.78 0 198.58 0 198.58-34.9 202.78-34.9 202.78-19.5 220.43-19.5 220.43-34.9 224.63-34.9 224.63 0 220.43 0ZM243.28 0.6L243.28 0.6Q240.68 0.6 238.53-0.35 236.38-1.3 234.85-3.08 233.33-4.85 232.48-7.33 231.63-9.8 231.63-12.9L231.63-12.9Q231.63-15.95 232.48-18.45 233.33-20.95 234.85-22.73 236.38-24.5 238.53-25.45 240.68-26.4 243.28-26.4L243.28-26.4Q245.88-26.4 248-25.45 250.13-24.5 251.68-22.73 253.23-20.95 254.08-18.45 254.93-15.95 254.93-12.9L254.93-12.9Q254.93-9.8 254.08-7.33 253.23-4.85 251.68-3.08 250.13-1.3 248-0.35 245.88 0.6 243.28 0.6ZM243.28-2.95L243.28-2.95Q246.53-2.95 248.58-4.95 250.63-6.95 250.63-11.05L250.63-11.05 250.63-14.75Q250.63-18.85 248.58-20.85 246.53-22.85 243.28-22.85L243.28-22.85Q240.03-22.85 237.98-20.85 235.93-18.85 235.93-14.75L235.93-14.75 235.93-11.05Q235.93-6.95 237.98-4.95 240.03-2.95 243.28-2.95ZM265.52 0L261.52 0 261.52-25.8 265.52-25.8 265.52-21.6 265.72-21.6Q266.67-23.8 268.4-25.1 270.12-26.4 273.02-26.4L273.02-26.4Q277.02-26.4 279.35-23.83 281.67-21.25 281.67-16.55L281.67-16.55 281.67 0 277.67 0 277.67-15.85Q277.67-22.8 271.82-22.8L271.82-22.8Q270.62-22.8 269.5-22.5 268.37-22.2 267.47-21.6 266.57-21 266.05-20.08 265.52-19.15 265.52-17.9L265.52-17.9 265.52 0ZM299.62 0.6L299.62 0.6Q296.97 0.6 294.85-0.35 292.72-1.3 291.19-3.08 289.67-4.85 288.85-7.33 288.02-9.8 288.02-12.9L288.02-12.9Q288.02-15.95 288.85-18.45 289.67-20.95 291.19-22.73 292.72-24.5 294.85-25.45 296.97-26.4 299.62-26.4L299.62-26.4Q302.22-26.4 304.27-25.45 306.32-24.5 307.77-22.83 309.22-21.15 310-18.85 310.77-16.55 310.77-13.8L310.77-13.8 310.77-11.9 292.22-11.9 292.22-10.7Q292.22-9.05 292.75-7.63 293.27-6.2 294.25-5.15 295.22-4.1 296.65-3.5 298.07-2.9 299.87-2.9L299.87-2.9Q302.32-2.9 304.15-4.05 305.97-5.2 306.97-7.35L306.97-7.35 309.82-5.3Q308.57-2.65 305.92-1.03 303.27 0.6 299.62 0.6ZM299.62-23.05L299.62-23.05Q297.97-23.05 296.62-22.48 295.27-21.9 294.3-20.85 293.32-19.8 292.77-18.38 292.22-16.95 292.22-15.25L292.22-15.25 292.22-14.9 306.47-14.9 306.47-15.45Q306.47-18.9 304.6-20.98 302.72-23.05 299.62-23.05ZM325.12 0.6L325.12 0.6Q321.52 0.6 319.09-0.78 316.67-2.15 314.92-4.45L314.92-4.45 317.77-6.75Q319.27-4.85 321.12-3.83 322.97-2.8 325.42-2.8L325.42-2.8Q327.97-2.8 329.39-3.9 330.82-5 330.82-7L330.82-7Q330.82-8.5 329.84-9.58 328.87-10.65 326.32-11.05L326.32-11.05 324.27-11.35Q322.47-11.6 320.97-12.13 319.47-12.65 318.34-13.53 317.22-14.4 316.59-15.7 315.97-17 315.97-18.8L315.97-18.8Q315.97-20.7 316.67-22.13 317.37-23.55 318.59-24.5 319.82-25.45 321.52-25.93 323.22-26.4 325.17-26.4L325.17-26.4Q328.32-26.4 330.44-25.3 332.57-24.2 334.17-22.25L334.17-22.25 331.52-19.85Q330.67-21.05 329.02-22.03 327.37-23 324.87-23L324.87-23Q322.37-23 321.09-21.93 319.82-20.85 319.82-19L319.82-19Q319.82-17.1 321.09-16.25 322.37-15.4 324.77-15L324.77-15 326.77-14.7Q331.07-14.05 332.87-12.23 334.67-10.4 334.67-7.45L334.67-7.45Q334.67-3.7 332.12-1.55 329.57 0.6 325.12 0.6ZM352.06 0L347.06 0Q344.97 0 343.89-1.18 342.81-2.35 342.81-4.25L342.81-4.25 342.81-22.3 338.56-22.3 338.56-25.8 340.97-25.8Q342.26-25.8 342.74-26.33 343.22-26.85 343.22-28.15L343.22-28.15 343.22-32.95 346.81-32.95 346.81-25.8 352.47-25.8 352.47-22.3 346.81-22.3 346.81-3.5 352.06-3.5 352.06 0ZM360.91-31.85L360.91-31.85Q359.61-31.85 359.04-32.48 358.46-33.1 358.46-34.1L358.46-34.1 358.46-34.75Q358.46-35.75 359.04-36.38 359.61-37 360.91-37L360.91-37Q362.21-37 362.79-36.38 363.36-35.75 363.36-34.75L363.36-34.75 363.36-34.1Q363.36-33.1 362.79-32.48 362.21-31.85 360.91-31.85ZM358.91 0L358.91-25.8 362.91-25.8 362.91 0 358.91 0ZM387.91 0L387.91-4.2 387.71-4.2Q385.36 0.6 380.16 0.6L380.16 0.6Q377.76 0.6 375.81-0.35 373.86-1.3 372.49-3.05 371.11-4.8 370.39-7.3 369.66-9.8 369.66-12.9L369.66-12.9Q369.66-16 370.39-18.5 371.11-21 372.49-22.75 373.86-24.5 375.81-25.45 377.76-26.4 380.16-26.4L380.16-26.4Q382.86-26.4 384.79-25.23 386.71-24.05 387.71-21.6L387.71-21.6 387.91-21.6 387.91-37 391.91-37 391.91 0 387.91 0ZM381.26-3L381.26-3Q382.61-3 383.84-3.35 385.06-3.7 385.96-4.38 386.86-5.05 387.39-6.03 387.91-7 387.91-8.25L387.91-8.25 387.91-17.85Q387.91-18.9 387.39-19.83 386.86-20.75 385.96-21.4 385.06-22.05 383.84-22.43 382.61-22.8 381.26-22.8L381.26-22.8Q377.86-22.8 375.91-20.68 373.96-18.55 373.96-15.1L373.96-15.1 373.96-10.7Q373.96-7.25 375.91-5.13 377.86-3 381.26-3ZM421.41 0L419.16 0Q416.91 0 415.93-1.2 414.96-2.4 414.71-4.2L414.71-4.2 414.46-4.2Q413.61-1.8 411.66-0.6 409.71 0.6 407.01 0.6L407.01 0.6Q402.91 0.6 400.63-1.5 398.36-3.6 398.36-7.2L398.36-7.2Q398.36-10.85 401.03-12.8 403.71-14.75 409.36-14.75L409.36-14.75 414.46-14.75 414.46-17.3Q414.46-20.05 412.96-21.5 411.46-22.95 408.36-22.95L408.36-22.95Q406.01-22.95 404.43-21.9 402.86-20.85 401.81-19.1L401.81-19.1 399.41-21.35Q400.46-23.45 402.76-24.93 405.06-26.4 408.56-26.4L408.56-26.4Q413.26-26.4 415.86-24.1 418.46-21.8 418.46-17.7L418.46-17.7 418.46-3.5 421.41-3.5 421.41 0ZM407.66-2.8L407.66-2.8Q409.16-2.8 410.41-3.15 411.66-3.5 412.56-4.15 413.46-4.8 413.96-5.65 414.46-6.5 414.46-7.5L414.46-7.5 414.46-11.75 409.16-11.75Q405.71-11.75 404.13-10.75 402.56-9.75 402.56-7.85L402.56-7.85 402.56-6.8Q402.56-4.9 403.93-3.85 405.31-2.8 407.66-2.8ZM443.61 0L443.61-4.2 443.41-4.2Q441.06 0.6 435.86 0.6L435.86 0.6Q433.46 0.6 431.5-0.35 429.56-1.3 428.18-3.05 426.81-4.8 426.08-7.3 425.36-9.8 425.36-12.9L425.36-12.9Q425.36-16 426.08-18.5 426.81-21 428.18-22.75 429.56-24.5 431.5-25.45 433.46-26.4 435.86-26.4L435.86-26.4Q438.56-26.4 440.48-25.23 442.41-24.05 443.41-21.6L443.41-21.6 443.61-21.6 443.61-37 447.61-37 447.61 0 443.61 0ZM436.96-3L436.96-3Q438.31-3 439.53-3.35 440.75-3.7 441.66-4.38 442.56-5.05 443.08-6.03 443.61-7 443.61-8.25L443.61-8.25 443.61-17.85Q443.61-18.9 443.08-19.83 442.56-20.75 441.66-21.4 440.75-22.05 439.53-22.43 438.31-22.8 436.96-22.8L436.96-22.8Q433.56-22.8 431.61-20.68 429.66-18.55 429.66-15.1L429.66-15.1 429.66-10.7Q429.66-7.25 431.61-5.13 433.56-3 436.96-3ZM477.55-8.25L483.8-25.8 487.75-25.8 476.2 6Q475.75 7.15 475.3 7.93 474.85 8.7 474.2 9.15 473.55 9.6 472.58 9.8 471.6 10 470.2 10L470.2 10 468.15 10 468.15 6.5 472.2 6.5 474.15 1 464.5-25.8 468.5-25.8 474.7-8.25 475.9-4.05 476.15-4.05 477.55-8.25ZM517.35 0.6L517.35 0.6Q510.7 0.6 507-3.93 503.3-8.45 503.3-17.25L503.3-17.25Q503.3-26.05 507-30.78 510.7-35.5 517.35-35.5L517.35-35.5Q521.75-35.5 524.72-33.5 527.7-31.5 529.35-27.85L529.35-27.85 525.95-25.8Q524.89-28.5 522.75-30.13 520.6-31.75 517.35-31.75L517.35-31.75Q515.1-31.75 513.32-30.9 511.55-30.05 510.32-28.48 509.1-26.9 508.45-24.73 507.8-22.55 507.8-19.85L507.8-19.85 507.8-14.65Q507.8-9.25 510.3-6.2 512.8-3.15 517.35-3.15L517.35-3.15Q520.7-3.15 522.95-4.88 525.2-6.6 526.25-9.45L526.25-9.45 529.6-7.35Q527.95-3.65 524.85-1.53 521.75 0.6 517.35 0.6ZM551.59 0L551.59-4.2 551.39-4.2Q550.99-3.3 550.42-2.43 549.84-1.55 548.99-0.88 548.14-0.2 546.94 0.2 545.74 0.6 544.14 0.6L544.14 0.6Q540.14 0.6 537.79-1.98 535.44-4.55 535.44-9.25L535.44-9.25 535.44-25.8 539.44-25.8 539.44-9.95Q539.44-3 545.34-3L545.34-3Q546.54-3 547.67-3.3 548.79-3.6 549.67-4.2 550.54-4.8 551.07-5.73 551.59-6.65 551.59-7.95L551.59-7.95 551.59-25.8 555.59-25.8 555.59 0 551.59 0ZM568.09 0L564.09 0 564.09-25.8 568.09-25.8 568.09-21.6 568.29-21.6Q568.74-22.6 569.31-23.48 569.89-24.35 570.71-25 571.54-25.65 572.64-26.03 573.74-26.4 575.24-26.4L575.24-26.4Q577.79-26.4 579.94-25.18 582.09-23.95 583.14-21.15L583.14-21.15 583.24-21.15Q583.94-23.25 585.86-24.83 587.79-26.4 591.09-26.4L591.09-26.4Q595.04-26.4 597.26-23.83 599.49-21.25 599.49-16.55L599.49-16.55 599.49 0 595.49 0 595.49-15.85Q595.49-19.3 594.14-21.05 592.79-22.8 589.84-22.8L589.84-22.8Q588.64-22.8 587.56-22.5 586.49-22.2 585.64-21.6 584.79-21 584.29-20.08 583.79-19.15 583.79-17.9L583.79-17.9 583.79 0 579.79 0 579.79-15.85Q579.79-19.3 578.44-21.05 577.09-22.8 574.24-22.8L574.24-22.8Q573.04-22.8 571.94-22.5 570.84-22.2 569.99-21.6 569.14-21 568.61-20.08 568.09-19.15 568.09-17.9L568.09-17.9 568.09 0ZM607.74 10L607.74-25.8 611.74-25.8 611.74-21.6 611.94-21.6Q612.94-24.05 614.86-25.23 616.79-26.4 619.49-26.4L619.49-26.4Q621.89-26.4 623.84-25.45 625.79-24.5 627.16-22.75 628.54-21 629.26-18.5 629.99-16 629.99-12.9L629.99-12.9Q629.99-9.8 629.26-7.3 628.54-4.8 627.16-3.05 625.79-1.3 623.84-0.35 621.89 0.6 619.49 0.6L619.49 0.6Q614.24 0.6 611.94-4.2L611.94-4.2 611.74-4.2 611.74 10 607.74 10ZM618.39-3L618.39-3Q621.79-3 623.74-5.13 625.69-7.25 625.69-10.7L625.69-10.7 625.69-15.1Q625.69-18.55 623.74-20.68 621.79-22.8 618.39-22.8L618.39-22.8Q617.04-22.8 615.81-22.43 614.59-22.05 613.69-21.4 612.79-20.75 612.26-19.83 611.74-18.9 611.74-17.85L611.74-17.85 611.74-8.25Q611.74-7 612.26-6.03 612.79-5.05 613.69-4.38 614.59-3.7 615.81-3.35 617.04-3 618.39-3ZM644.53 0L640.98 0Q638.88 0 637.81-1.18 636.73-2.35 636.73-4.15L636.73-4.15 636.73-37 640.73-37 640.73-3.5 644.53-3.5 644.53 0ZM652.33-31.85L652.33-31.85Q651.03-31.85 650.46-32.48 649.88-33.1 649.88-34.1L649.88-34.1 649.88-34.75Q649.88-35.75 650.46-36.38 651.03-37 652.33-37L652.33-37Q653.63-37 654.21-36.38 654.78-35.75 654.78-34.75L654.78-34.75 654.78-34.1Q654.78-33.1 654.21-32.48 653.63-31.85 652.33-31.85ZM650.33 0L650.33-25.8 654.33-25.8 654.33 0 650.33 0ZM666.83 0L662.83 0 662.83-25.8 666.83-25.8 666.83-21.6 667.03-21.6Q667.48-22.6 668.05-23.48 668.63-24.35 669.45-25 670.28-25.65 671.38-26.03 672.48-26.4 673.98-26.4L673.98-26.4Q676.53-26.4 678.68-25.18 680.83-23.95 681.88-21.15L681.88-21.15 681.98-21.15Q682.68-23.25 684.6-24.83 686.53-26.4 689.83-26.4L689.83-26.4Q693.78-26.4 696-23.83 698.23-21.25 698.23-16.55L698.23-16.55 698.23 0 694.23 0 694.23-15.85Q694.23-19.3 692.88-21.05 691.53-22.8 688.58-22.8L688.58-22.8Q687.38-22.8 686.3-22.5 685.23-22.2 684.38-21.6 683.53-21 683.03-20.08 682.53-19.15 682.53-17.9L682.53-17.9 682.53 0 678.53 0 678.53-15.85Q678.53-19.3 677.18-21.05 675.83-22.8 672.98-22.8L672.98-22.8Q671.78-22.8 670.68-22.5 669.58-22.2 668.73-21.6 667.88-21 667.35-20.08 666.83-19.15 666.83-17.9L666.83-17.9 666.83 0ZM708.48-31.85L708.48-31.85Q707.18-31.85 706.6-32.48 706.03-33.1 706.03-34.1L706.03-34.1 706.03-34.75Q706.03-35.75 706.6-36.38 707.18-37 708.48-37L708.48-37Q709.78-37 710.35-36.38 710.93-35.75 710.93-34.75L710.93-34.75 710.93-34.1Q710.93-33.1 710.35-32.48 709.78-31.85 708.48-31.85ZM706.48 0L706.48-25.8 710.48-25.8 710.48 0 706.48 0ZM728.67 0.6L728.67 0.6Q726.02 0.6 723.9-0.35 721.77-1.3 720.25-3.08 718.72-4.85 717.9-7.33 717.07-9.8 717.07-12.9L717.07-12.9Q717.07-15.95 717.9-18.45 718.72-20.95 720.25-22.73 721.77-24.5 723.9-25.45 726.02-26.4 728.67-26.4L728.67-26.4Q731.27-26.4 733.32-25.45 735.37-24.5 736.82-22.83 738.27-21.15 739.05-18.85 739.82-16.55 739.82-13.8L739.82-13.8 739.82-11.9 721.27-11.9 721.27-10.7Q721.27-9.05 721.8-7.63 722.32-6.2 723.3-5.15 724.27-4.1 725.7-3.5 727.12-2.9 728.92-2.9L728.92-2.9Q731.37-2.9 733.2-4.05 735.02-5.2 736.02-7.35L736.02-7.35 738.87-5.3Q737.62-2.65 734.97-1.03 732.32 0.6 728.67 0.6ZM728.67-23.05L728.67-23.05Q727.02-23.05 725.67-22.48 724.32-21.9 723.35-20.85 722.37-19.8 721.82-18.38 721.27-16.95 721.27-15.25L721.27-15.25 721.27-14.9 735.52-14.9 735.52-15.45Q735.52-18.9 733.65-20.98 731.77-23.05 728.67-23.05ZM750.42 0L746.42 0 746.42-25.8 750.42-25.8 750.42-21.6 750.62-21.6Q751.57-23.8 753.3-25.1 755.02-26.4 757.92-26.4L757.92-26.4Q761.92-26.4 764.25-23.83 766.57-21.25 766.57-16.55L766.57-16.55 766.57 0 762.57 0 762.57-15.85Q762.57-22.8 756.72-22.8L756.72-22.8Q755.52-22.8 754.4-22.5 753.27-22.2 752.37-21.6 751.47-21 750.95-20.08 750.42-19.15 750.42-17.9L750.42-17.9 750.42 0ZM785.52 0L780.52 0Q778.42 0 777.34-1.18 776.27-2.35 776.27-4.25L776.27-4.25 776.27-22.3 772.02-22.3 772.02-25.8 774.42-25.8Q775.72-25.8 776.19-26.33 776.67-26.85 776.67-28.15L776.67-28.15 776.67-32.95 780.27-32.95 780.27-25.8 785.92-25.8 785.92-22.3 780.27-22.3 780.27-3.5 785.52-3.5 785.52 0ZM801.92 0.6L801.92 0.6Q799.32 0.6 797.17-0.35 795.02-1.3 793.49-3.08 791.97-4.85 791.12-7.33 790.27-9.8 790.27-12.9L790.27-12.9Q790.27-15.95 791.12-18.45 791.97-20.95 793.49-22.73 795.02-24.5 797.17-25.45 799.32-26.4 801.92-26.4L801.92-26.4Q804.52-26.4 806.64-25.45 808.77-24.5 810.32-22.73 811.87-20.95 812.72-18.45 813.57-15.95 813.57-12.9L813.57-12.9Q813.57-9.8 812.72-7.33 811.87-4.85 810.32-3.08 808.77-1.3 806.64-0.35 804.52 0.6 801.92 0.6ZM801.92-2.95L801.92-2.95Q805.17-2.95 807.22-4.95 809.27-6.95 809.27-11.05L809.27-11.05 809.27-14.75Q809.27-18.85 807.22-20.85 805.17-22.85 801.92-22.85L801.92-22.85Q798.67-22.85 796.62-20.85 794.57-18.85 794.57-14.75L794.57-14.75 794.57-11.05Q794.57-6.95 796.62-4.95 798.67-2.95 801.92-2.95Z" opacity="1" transform="matrix(1,0,0,1,0,0)" fill="#000000" class="slogan-text-1" data-fill-palette-color="secondary" id="text-1"></path></svg></g></svg></g></svg></g></svg></g><g transform="matrix(1,0,0,1,422.88506847744003,0)"><svg viewBox="0 0 167.20438822664218 113.23277457656134" height="113.23277457656134" width="167.20438822664218"><g><svg xmlns="http://www.w3.org/2000/svg" xmlns:xlink="http://www.w3.org/1999/xlink" version="1.1" x="0" y="0" viewBox="0 17 100.41998875021503 68.00559524622635" enable-background="new 0 0 100 100" xml:space="preserve" width="167.20438822664218" height="113.23277457656134" class="icon-icon-0" data-fill-palette-color="accent" id="icon-0"><path d="M94.439 38.434C94.066 38.055 93.557 38 93.024 38h-8.869C83.061 38 82 38.569 82 39.665V47h-2.723L68.336 30.591C68.004 28.737 66.379 27 64.431 27H46v-6h15.019c1.095 0 1.983-0.905 1.983-2s-0.889-2-1.983-2H26.864c-1.096 0-1.983 0.905-1.983 2s0.888 2 1.983 2H42v6H23.11C20.923 27 19 28.928 19 31.115v0.486L14.577 36H9.972C8.877 36 8 36.734 8 37.83V51H4V35.626c0-1.095-0.905-1.983-2-1.983s-2 0.888-2 1.983v34.151c0 1.096 0.905 1.983 2 1.983s2-0.888 2-1.983V55h4v10.368C8 66.464 8.877 68 9.972 68h4.62l5.022 5.268 9.921 11.367C29.912 85.08 30.465 85 31.048 85h45.284c2.188 0 3.967-1.322 3.967-3.514L80.283 76H82v7.367C82 84.463 83.062 85 84.156 85h8.077c0.52 0 1.019-0.029 1.39-0.393 4.753-4.668 6.62-14.865 6.783-23.008C100.619 51.011 98.389 42.456 94.439 38.434zM96.441 61.513C96.266 70.25 94.295 77 91.367 81H86v-7.548C86 72.356 85.252 72 84.156 72h-5.862c-0.527 0-1.032-0.055-1.404 0.318-0.372 0.371-0.58 0.551-0.579 1.078L76.332 81H31.967l-9.363-10.857-5.651-5.889C16.576 63.834 16.04 64 15.477 64H12V40h3.356c0.501 0 0.983-0.283 1.351-0.625l5.715-5.411C22.826 33.59 23 33.017 23 32.466V31h41.431c0 0 0.12 0.844 0.344 1.173l11.814 17.662C76.957 50.378 77.571 51 78.228 51h5.928C85.251 51 86 49.575 86 48.479V42h6.134C94.941 45 96.615 52.783 96.441 61.513z" fill="#ffdc00" data-fill-palette-color="accent"></path></svg></g></svg></g></svg></g></svg></g><defs></defs></svg><rect width="395.52" height="75.8966737868369" fill="none" stroke="none" visibility="hidden"></rect></g></svg></g></svg>